HIERARCHY
ROOT Hips
{
  OFFSET 0 89.5177 0.535
  CHANNELS 6 Xposition Yposition Zposition Zrotation Xrotation Yrotation
  JOINT Spine
  {
    OFFSET 12.0259 -0.162855 1.69034e-005
    CHANNELS 3 Zrotation Xrotation Yrotation
    JOINT Spine1
    {
      OFFSET 15.3169 -0.0121922 0
      CHANNELS 3 Zrotation Xrotation Yrotation
      JOINT Spine2
      {
        OFFSET 15.3176 -0.0121908 0
        CHANNELS 3 Zrotation Xrotation Yrotation
        JOINT Neck
        {
          OFFSET 19.9142 1.56338 0
          CHANNELS 3 Zrotation Xrotation Yrotation
          JOINT Head
          {
            OFFSET 6.92651 0 0
            CHANNELS 3 Zrotation Xrotation Yrotation
            End Site
            {
              OFFSET 20.7666 0 0
            }
          }
          JOINT LeftShoulder
          {
            OFFSET -6.20654 0.708824 7.28219
            CHANNELS 3 Zrotation Xrotation Yrotation
            JOINT LeftArm
            {
              OFFSET 14.108 0 -1.52588e-005
              CHANNELS 3 Zrotation Xrotation Yrotation
              JOINT LeftForeArm
              {
                OFFSET 28.5802 0 0
                CHANNELS 3 Zrotation Xrotation Yrotation
                JOINT LeftHand
                {
                  OFFSET 27.092 0 0
                  CHANNELS 3 Zrotation Xrotation Yrotation
                  End Site
                  {
                    OFFSET 9.55928 -0.186424 0.145352
                  }
                }
              }
            }
          }
          JOINT RightShoulder
          {
            OFFSET -6.20654 0.708866 -7.28218
            CHANNELS 3 Zrotation Xrotation Yrotation
            JOINT RightArm
            {
              OFFSET 14.108 0 1.52588e-005
              CHANNELS 3 Zrotation Xrotation Yrotation
              JOINT RightForeArm
              {
                OFFSET 28.5802 0 0
                CHANNELS 3 Zrotation Xrotation Yrotation
                JOINT RightHand
                {
                  OFFSET 27.092 0 0
                  CHANNELS 3 Zrotation Xrotation Yrotation
                  End Site
                  {
                    OFFSET 9.55929 -0.186417 -0.145354
                  }
                }
              }
            }
          }
        }
      }
    }
  }
  JOINT LeftUpLeg
  {
    OFFSET 0.005 -0.535 8.837
    CHANNELS 3 Zrotation Xrotation Yrotation
    JOINT LeftLeg
    {
      OFFSET 39.9035 0 0
      CHANNELS 3 Zrotation Xrotation Yrotation
      JOINT LeftFoot
      {
        OFFSET 39.6689 0 0
        CHANNELS 3 Zrotation Xrotation Yrotation
        JOINT LeftToe
        {
          OFFSET 10.1624 13.6296 0
          CHANNELS 3 Zrotation Xrotation Yrotation
          End Site
          {
            OFFSET 8.38147 0 0
          }
        }
      }
    }
  }
  JOINT RightUpLeg
  {
    OFFSET 0.005 -0.535 -8.837
    CHANNELS 3 Zrotation Xrotation Yrotation
    JOINT RightLeg
    {
      OFFSET 39.9035 0 0
      CHANNELS 3 Zrotation Xrotation Yrotation
      JOINT RightFoot
      {
        OFFSET 39.6689 0 0
        CHANNELS 3 Zrotation Xrotation Yrotation
        JOINT RightToe
        {
          OFFSET 10.1624 13.6296 0
          CHANNELS 3 Zrotation Xrotation Yrotation
          End Site
          {
            OFFSET 8.38147 0 0
          }
        }
      }
    }
  }
}
MOTION
Frames:	15
Frame Time:	0.0333333
-16.2473 85.3865 331.168 -111.179 -29.5324 176.858 1.59682 0.507872 -0.197946 3.19558 1.0105 -0.409843 3.19558 1.0105 -0.409852 -8.30669e-012 -9.0191e-006 -5.27751e-005 20.8579 -8.13692 9.31699 -179.168 -10.1947 -85.3117 0.233354 -57.643 17.6973 -130.841 4.77083e-015 -1.2921e-014 -29.6457 -33.4197 -24.9511 -179.218 3.55005 77.5674 -8.91922 -0.783961 -59.6958 -78.7544 3.18055e-015 -6.36111e-015 -43.5953 50.3736 49.22 -44.9113 5.81735 176.035 -66.1158 -6.36111e-015 -6.36111e-015 0.725415 7.44364 1.74111 90 9.54166e-015 -0 -13.8284 -8.33236 -175.301 -40.5079 -3.18056e-015 2.38542e-015 25.122 33.5934 -46.4678 90 -6.36111e-015 -1.59028e-015 
-8.24322 87.3399 328.048 -111.867 -28.5314 178.647 1.49178 0.972538 -0.82802 2.99809 1.92356 -1.68129 2.99809 1.92356 -1.6813 -8.3051e-012 -9.0191e-006 -5.27751e-005 21.0251 -10.0402 10.7341 -178.797 -9.85435 -83.0036 7.51563 -50.7332 23.8693 -139.369 3.18055e-015 6.16232e-015 -76.1854 -13.5622 -61.9444 -178.742 5.67324 77.477 -13.1773 -5.08946 -58.2567 -83.2067 0 -0 -44.4295 49.7461 49.498 -45.168 7.5072 174.182 -50.2966 0 3.18055e-015 1.09778 7.19766 1.74285 90 -1.59028e-015 6.36111e-015 -11.772 -8.83432 -178.7 -39.7934 -3.18056e-015 -1.59028e-015 6.47923 34.1227 -35.3251 90 -3.18055e-015 1.59028e-015 
-0.0670514 88.1026 324.94 -109.015 -27.5427 179.572 2.04041 1.37068 -0.937036 4.1047 2.70741 -1.92297 4.1047 2.70741 -1.92298 -8.30748e-012 -9.0191e-006 -5.27751e-005 17.8105 -13.1979 11.3921 -178.345 -9.80681 -80.3723 8.8038 -42.6527 26.748 -141.176 9.93923e-016 -3.74895e-015 -78.2768 -12.2419 -63.8419 -178.51 7.02187 77.99 -15.9269 -9.36844 -57.8576 -87.112 3.18055e-015 -6.36111e-015 -46.4623 49.0099 50.3729 -40.2331 -0.456933 174.364 -30.1094 6.36111e-015 -2.02512e-015 -0.484401 12.5646 -10.3049 90 -3.18055e-015 -3.18055e-015 -3.61392 -6.53377 -178.055 -32.8503 9.54167e-015 3.18056e-015 -16.8876 31.2714 -30.2141 90 9.54166e-015 -1.59028e-015 
8.26226 87.2354 322.06 -107.388 -27.3446 178.594 2.20182 1.38984 -0.763293 4.42388 2.74967 -1.57999 4.42388 2.74967 -1.58 -8.3051e-012 -9.0191e-006 -5.27751e-005 17.2561 -14.2802 11.6485 -178.05 -9.41891 -78.2488 10.3668 -37.8595 31.3957 -138.494 7.95139e-016 -4.27387e-015 -76.9159 -13.8386 -65.1295 -178.393 7.58312 77.9956 -17.2496 -12.9964 -57.7609 -88.6401 3.18055e-015 6.36111e-015 -46.8514 49.0926 50.2218 -38.115 -2.56056 176.482 -20.3372 -9.54166e-015 7.95139e-016 11.5952 13.9373 -16.3288 90 1.59028e-015 -3.18055e-015 7.65481 -2.39799 -174.62 -18.2521 -3.18056e-015 -3.18056e-015 -35.6141 30.5734 -38.1911 90 6.36111e-015 -4.77083e-015 
16.7505 85.8172 319.282 -105.711 -25.7526 179.851 1.9954 1.26326 -1.36325 4.02171 2.47839 -2.77051 4.02171 2.47839 -2.77051 -8.31066e-012 -9.0191e-006 -5.27751e-005 18.8558 -13.5893 13.0696 -177.869 -8.81516 -76.3521 13.8116 -39.4936 34.9485 -136.172 2.38542e-015 1.35174e-014 -75.4098 -25.6474 -75.2727 -178.448 6.10241 75.7041 -15.7319 -16.6862 -58.1498 -87.5541 -3.18055e-015 3.18055e-015 -47.6931 49.9071 51.376 -39.6589 -1.35052 176.618 -27.0005 -3.18055e-015 -1.59028e-015 13.7018 17.4011 -11.735 90 1.19271e-015 7.95139e-016 3.15726 4.80597 -174.395 -37.3892 3.18056e-015 -3.18056e-015 -25.2899 24.4392 -28.6956 90 -6.36111e-015 7.95139e-016 
24.8187 83.4699 316.362 -103.467 -25.9195 -177.633 1.94921 0.673324 -1.88678 3.9199 1.2822 -3.79558 3.9199 1.2822 -3.79558 -8.30987e-012 -9.0191e-006 -5.27751e-005 18.9861 -13.8846 12.7866 -178.302 -7.11171 -76.5352 17.1901 -41.7458 41.962 -130.041 -3.18055e-015 -3.97569e-015 -77.2552 -22.3237 -77.5286 -178.607 5.31215 75.2859 -13.0324 -17.707 -60.0913 -83.6382 9.54166e-015 3.18055e-015 -45.9579 49.0292 49.3099 -39.2269 -0.0726668 174.93 -41.056 3.18055e-015 -1.98785e-015 21.6712 16.6152 -8.66078 90 3.97569e-016 -2.38542e-015 -0.726509 3.21605 -175.968 -53.6404 0 -3.18056e-015 -24.6358 19.4041 -21.675 90 3.18055e-015 -1.59028e-015 
32.685 81.5711 313.287 -100.401 -26.5902 -174.295 2.22773 -0.0979454 -2.4145 4.44939 -0.28908 -4.82324 4.44939 -0.28908 -4.82325 -8.3035e-012 -9.0191e-006 -5.27751e-005 17.1411 -14.0924 12.1036 -178.863 -5.20743 -77.6626 20.5775 -42.6226 52.138 -126.669 6.36111e-015 1.19271e-014 -80.3574 -17.6013 -83.1815 -178.537 5.40089 74.8235 -10.3175 -16.5543 -61.8342 -76.416 -3.18055e-015 6.36111e-015 -47.8036 46.2165 51.0904 -34.1777 0.255135 172.893 -48.5773 -6.36111e-015 7.95139e-016 29.6864 15.7253 -9.07768 90 3.97569e-016 -7.95139e-016 -5.64504 -2.20978 177.118 -67.193 -3.18056e-015 9.54167e-015 -17.6906 -20.7249 23.3052 90 -3.97569e-016 -6.36111e-015 
39.5818 80.7807 310.513 -104.943 -24.1096 -172.764 1.16373 -0.598449 -3.10778 2.29352 -1.25852 -6.20316 2.29352 -1.25852 -6.20317 -8.31066e-012 -9.0191e-006 -5.27751e-005 14.1518 -11.4804 9.46096 -178.929 -4.98796 -77.8607 24.5842 -42.1916 63.6672 -126.127 -3.18055e-015 4.77083e-015 -48.6079 -56.607 -50.9965 -178.242 6.09996 73.8888 -8.88454 -16.8942 -61.686 -73.5139 -9.54166e-015 -1.11319e-014 -51.2987 43.6186 55.1006 -31.6727 1.13545 170.32 -47.5313 0 -7.95139e-016 33.0855 12.9351 -8.16791 90 -7.95139e-016 1.59028e-015 -21.4353 -0.57965 171.992 -81.5555 0 -3.18056e-015 -13.2722 -20.496 22.8494 90 0 -0 
48.3012 82.0255 308.806 -100.893 -20.647 -175.137 1.66549 -1.00228 -2.18614 3.29234 -2.06647 -4.34312 3.29234 -2.06647 -4.34313 -8.31464e-012 -9.0191e-006 -5.27751e-005 11.1723 -6.2567 6.52401 -179.001 -5.51917 -79.7217 34.8297 -39.7591 77.0301 -122.211 -3.18055e-015 -6.36111e-015 -127.417 -58.6729 -139.395 -178.122 6.7968 74.5185 -7.98054 -20.0407 -61.6669 -76.1389 -6.36111e-015 -1.59028e-015 -54.0208 45.6323 59.7654 -17.2377 -0.186645 175.86 -39.4551 0 -3.97569e-015 33.5726 12.065 -11.1265 90 -7.95139e-016 1.59028e-015 -25.8092 -1.2395 179.511 -84.764 0 -0 -18.9499 14.9197 -15.9171 90 0 7.95139e-016 
56.6063 84.0903 306.812 -100.709 -18.1488 -176.79 1.48379 -1.61221 -1.6511 2.92226 -3.26551 -3.2617 2.92226 -3.26551 -3.26171 -8.31146e-012 -9.0191e-006 -5.27751e-005 8.6107 0.297113 3.40436 -178.952 -5.61543 -79.4134 20.1104 -28.217 70.7692 -121.111 6.36111e-015 6.36111e-015 -85.2455 -6.50258 -86.2082 -178.039 7.67562 75.6253 -7.84149 -23.7508 -61.5265 -80.0387 3.18055e-015 7.95139e-016 -54.4793 47.5608 62.2594 -7.10517 -0.919815 177.598 -30.9874 -3.18055e-015 -1.59028e-015 27.7959 11.2686 -6.35832 90 -1.59028e-015 -0 -32.6204 -3.18065 -179.023 -81.468 7.95139e-015 4.77083e-015 -15.6355 14.3011 -15.3723 90 0 1.19271e-015 
65.212 86.5021 305.106 -100.906 -15.81 -179.22 1.43981 -2.06121 -0.797507 2.85356 -4.14115 -1.54426 2.85356 -4.14115 -1.54427 -8.30778e-012 -9.0191e-006 -5.27751e-005 5.55279 6.17546 0.176239 -178.691 -6.66819 -78.8676 11.3429 -19.9685 66.5855 -117.357 3.18055e-015 -0 -79.9813 -12.613 -80.7441 -178.115 8.22283 77.0445 -7.03081 -26.654 -60.9029 -83.7852 -9.54166e-015 -1.59028e-015 -55.0782 47.5747 62.7202 0.782473 2.9376 -179.034 -23.6976 -3.18055e-015 -1.59028e-015 18.5114 13.374 -5.33376 90 7.95139e-016 -1.59028e-015 -36.2776 -6.21852 -176.365 -71.549 -1.59028e-015 -5.96354e-016 -11.8549 15.6004 -17.1639 90 0 -7.95139e-016 
73.7809 88.4902 303.347 -101.421 -13.4228 178.784 1.42922 -2.4064 -0.329968 2.84833 -4.81978 -0.600342 2.84833 -4.81978 -0.600351 -8.30834e-012 -9.0191e-006 -5.27751e-005 2.33487 11.9716 -1.37273 -178.444 -8.70173 -79.8186 0.0733089 -10.7818 60.2319 -114.514 9.54166e-015 4.77083e-015 -76.673 -24.1537 -85.6093 -178.372 6.96198 76.8006 -4.97884 -29.1833 -59.904 -86.8491 -6.36111e-015 -1.98785e-015 -54.9121 47.7972 62.5561 5.56861 5.48839 -176.579 -20.6223 -6.36111e-015 -1.59028e-015 7.63977 16.2535 -7.04685 90 -1.59028e-015 3.97569e-016 -39.0979 -8.99264 -173.81 -61.2375 0 7.95139e-016 -2.00513 19.4238 -20.2872 90 -3.18055e-015 1.59028e-015 
82.2619 89.5929 301.449 -101.622 -11.7044 178.274 1.62183 -2.15338 0.466151 3.26459 -4.29213 0.994351 3.26459 -4.29213 0.994342 -8.31127e-012 -9.0191e-006 -5.27751e-005 -1.40278 13.4266 -4.90868 -178.445 -8.36483 -79.4293 -14.2101 -1.26924 56.138 -107.069 3.18055e-015 -1.59028e-015 -73.5536 -25.7354 -80.3773 -178.261 8.81006 78.7861 -4.30364 -28.6522 -57.8041 -88.8943 3.18055e-015 -0 -55.1361 48.9169 63.5492 7.56344 3.39165 -175.633 -21.6906 -3.18055e-015 -7.95139e-016 -5.2736 17.3737 -11.2349 90 3.18055e-015 1.98785e-015 -37.5132 -9.26826 -172.105 -42.922 3.18056e-015 -3.18056e-015 0.484064 19.816 -24.1377 90 4.77083e-015 1.59028e-015 
90.9246 89.4172 298.908 -100.329 -12.3722 -179.883 1.94534 -2.5225 0.521163 3.91926 -5.02523 1.12961 3.91926 -5.02523 1.1296 -8.30803e-012 -9.0191e-006 -5.27751e-005 -4.18663 15.2631 -6.7862 -178.622 -8.22161 -80.453 -26.062 9.0165 54.2203 -101.583 0 3.18055e-015 -72.3954 -27.3175 -79.0694 -178.342 8.6104 79.0588 -3.7632 -27.284 -55.9243 -90.0188 0 -1.19271e-015 -55.0007 49.2853 63.5744 11.3698 -4.58762 -177.483 -20.7664 0 -1.59028e-015 -22.2245 13.4318 -15.0015 90 6.36111e-015 3.18055e-015 -32.311 -17.842 -177.956 -22.5699 3.97569e-016 -0 1.18325 -22.3871 27.3418 90 -3.18055e-015 3.18055e-015 
99.4256 88.1759 296.92 -99.6476 -11.8282 -179.539 2.17809 -2.39026 0.830835 4.39636 -4.74644 1.75449 4.39636 -4.74644 1.75448 -8.30947e-012 -9.0191e-006 -5.27751e-005 -7.46797 15.8405 -7.92887 -178.93 -6.84538 -81.091 -34.9352 18.2127 55.9255 -97.6771 -1.27222e-014 -0 -71.4217 -26.9933 -75.9847 -178.418 8.15475 78.9834 -3.65143 -24.1144 -54.326 -90.2299 -3.18055e-015 -4.17448e-015 -55.8558 49.0009 64.3169 8.38768 -8.35129 -178.977 -35.2099 -3.97569e-016 -0 -17.0068 11.6129 -12.8505 90 9.54166e-015 3.18055e-015 -33.8442 -17.446 -178.243 -23.477 -7.95139e-016 -0 6.19442 -22.9597 24.6274 90 -3.18055e-015 -4.77083e-015 
